# xmcd CD database file
#
# Track frame offsets:
#	150
#	23003
#	46025
#	65365
#	80028
#	100392
#	126387
#	145068
#	165963
#	181262
#	201172
#	229059
#	245240
#	264509
#	286841
#
# Disc length: 4034 seconds
#
# Revision: 0
# Processed by: cddbd v1.5.2PL0 Copyright (c) Steve Scherf et al.
# Submitted via: jetAudio 7
#
DISCID=ce0fc00f
DTITLE=15th Anniversary Bakery Music Male Hits - 15th Anniversary Baker
DTITLE=y Music Male Hits
DYEAR=1900
DGENRE=Pop
TTITLE0=แค่ได้พบเธอ
TTITLE1=รักที่เพิ่งผ่านพ้นไป
TTITLE2=รักเธอทังหมดของหัวใจ
TTITLE3=สิ่งที่ไม่เคยบอก
TTITLE4=เพลงเพราะเพราะ
TTITLE5=ยังรอคอยเธอเสมอ
TTITLE6=เวลา
TTITLE7=ที่ว่าง
TTITLE8=เธอเท่านั้น
TTITLE9=แค่
TTITLE10=ขอให้ผม
TTITLE11=ก่อนที่มันจะสาย
TTITLE12=เหงา
TTITLE13=ตอบ
TTITLE14=กันและกัน
EXTD=
EXTT0=
EXTT1=
EXTT2=
EXTT3=
EXTT4=
EXTT5=
EXTT6=
EXTT7=
EXTT8=
EXTT9=
EXTT10=
EXTT11=
EXTT12=
EXTT13=
EXTT14=
PLAYORDER=
